<?xml version="1.0" encoding="UTF-8"?>
<svg width="63px" height="73px" viewBox="0 0 63 73" version="1.1" xmlns="http://www.w3.org/2000/svg" xmlns:xlink="http://www.w3.org/1999/xlink">
    <!-- Generator: sketchtool 63.1 (101010) - https://sketch.com -->
    <title>7EB88A38-9A38-42FE-A666-A501DCCF53A3@1.00x</title>
    <desc>Created with sketchtool.</desc>
    <g id="Symbols" stroke="none" stroke-width="1" fill="none" fill-rule="evenodd">
        <g id="Achievements-Icons-/-Boxes" transform="translate(2.000000, 0.000000)">
            <g id="icon-box-count-80-copy-9" transform="translate(0.000000, -3.000000)">
                <path d="M45.7941503,16.8289363 C45.7941503,16.8289363 41.6653021,13.1559608 37.2891773,15.6937845 C33.8937485,17.6631284 30.8011075,22.8851885 33.4437722,29.002898 C36.4195034,35.8888233 45.4358514,37.5816095 50.2535417,32.8132486 C53.828961,29.274033 54.0182034,23.6904595 50.9221981,19.5457091 C48.9364148,16.888586 45.7941503,16.8289363 45.7941503,16.8289363 Z" id="Stroke-5" stroke="#B18B3D" stroke-width="2.5" fill="#FFD88A" stroke-linecap="round" stroke-linejoin="round"></path>
                <path d="M44.25,16.4481582 C44.25,16.4481582 46.2051479,14.0777557 48.2724408,13.8423818 C50.3397337,13.6063136 52.1166667,14.8866365 52.1166667,14.8866365 C52.1166667,14.8866365 49.2452334,15.4330649 48.3550282,15.9669957 C47.4630843,16.4995378 45.8165525,17.1917731 44.25,16.4481582 Z" id="Stroke-9" stroke="#B18B3D" stroke-width="2.5" stroke-linecap="round" stroke-linejoin="round"></path>
                <g id="Group-7" transform="translate(1.966667, 0.000000)" stroke="#B18B3D" stroke-linecap="round" stroke-linejoin="round" stroke-width="2.5">
                    <path d="M31.7832793,34.7428693 C31.7832793,34.7428693 7.45459941,41.3204084 1.10195486,14.802658 C1.10195486,14.802658 26.4451285,5.51134728 31.7832793,34.7428693 Z" id="Stroke-23" transform="translate(16.442617, 24.432674) rotate(6.000000) translate(-16.442617, -24.432674) "></path>
                    <path d="M8.39448157,21.8166198 C8.39448157,21.8166198 20.5603047,23.2111133 30.2995329,35.9293451" id="Stroke-25" transform="translate(19.347007, 28.872982) rotate(17.000000) translate(-19.347007, -28.872982) "></path>
                    <path d="M30.0972013,29.1326316 C30.0972013,29.1326316 13.2310795,25.2945181 20.416581,4.41403509 C20.416581,4.41403509 39.3995648,9.82340184 30.0972013,29.1326316 Z" id="Stroke-15" fill="#FFFFFF"></path>
                    <path d="M25.6488648,13.2421053 C25.6488648,13.2421053 29.9938706,17.8811696 29.0113502,28.2498246" id="Stroke-17"></path>
                </g>
                <path d="M14.75,27.6266667 C14.75,27.6266667 15.0917376,26.2678607 15.7333333,25.6533333" id="Stroke-41" stroke="#B18B3D" stroke-width="1.5" stroke-linecap="round"></path>
                <path d="M41.3,36.5066667 L54.4909543,36.5066667 L58.9731682,25.2189986 C59.080054,24.9483806 58.8544063,24.6666667 58.5302562,24.6666667 L46.3348061,24.6666667 C46.1350066,24.6666667 45.9568638,24.7776262 45.8911954,24.9440655 L41.3,36.5066667 Z" id="Fill-61" fill="#D8A94A"></path>
                <polygon id="Fill-63" fill="#A8C695" points="41.3 73.0133333 53.1 73.0133333 53.1 35.52 41.3 35.52"></polygon>
                <g id="Group-69" transform="translate(2.950000, 35.520000)">
                    <path d="M2.09944125,38.3274848 C1.17441511,38.3274848 0.424377614,37.5688791 0.424377614,36.6331432 L0.424377614,1.73605879 C0.424377614,0.800933714 1.17441511,0.040495619 2.09944125,0.040495619 L51.1209992,0.040495619 C52.0454219,0.040495619 52.7942526,0.800933714 52.7942526,1.73605879 L52.7942526,36.6331432 C52.7942526,37.5688791 52.0454219,38.3274848 51.1209992,38.3274848 L2.09944125,38.3274848 Z" id="Fill-65" fill="#FFD88A"></path>
                    <path d="M38.775639,38.3274848 C38.519842,38.3274848 38.3124344,37.5688791 38.3124344,36.6331432 L38.3124344,1.73605879 C38.3124344,0.800933714 38.519842,0.040495619 38.775639,0.040495619 L52.3315486,0.040495619 C52.5871788,0.040495619 52.7942526,0.800933714 52.7942526,1.73605879 L52.7942526,36.6331432 C52.7942526,37.5688791 52.5871788,38.3274848 52.3315486,38.3274848 L38.775639,38.3274848 Z" id="Fill-65" fill="#D8A94A"></path>
                    <path d="M5.75094313,4.30035671 L5.75094313,34.8655206 C5.75094313,36.2309521 5.69375003,37.5851163 2.03051118,37.5851163 C1.1210105,37.5851163 1.22892307,36.7625534 1.22892307,35.8421099 L1.22892307,2.82766607 C1.22868006,2.06568394 -0.313815145,2.10857746 2.84475476,2.10857746 C4.95046803,2.10857746 5.91919749,2.83917054 5.75094313,4.30035671 Z" id="Path" fill="#FFFFFF"></path>
                    <path d="M7.25789903,38.3274848 C6.11157508,38.3274848 4.39208915,38.3274848 2.09944125,38.3274848 C1.17441511,38.3274848 0.424377614,37.5688791 0.424377614,36.6331432 L0.424377614,1.73605879 C0.424377614,0.800933714 1.17441511,0.040495619 2.09944125,0.040495619 L51.1209992,0.040495619 C52.0454219,0.040495619 52.7942526,0.800933714 52.7942526,1.73605879 L52.7942526,36.6331432 C52.7942526,37.5688791 52.0454219,38.3274848 51.1209992,38.3274848 C35.8639969,38.3274848 26.2178416,38.3274848 22.1825332,38.3274848 M17.4389236,38.3274848 C14.8703734,38.3274848 12.7621025,38.3274848 11.1141109,38.3274848" id="Shape" stroke="#B18B3D" stroke-width="2.5" stroke-linecap="round" stroke-linejoin="round"></path>
                </g>
                <g id="Group-74" transform="translate(0.000000, 23.680000)">
                    <path d="M42.0667355,13.2000871 L3.99148711,13.2000871 L0.171694155,1.15551822 C0.0799810094,0.866753778 0.273531479,0.566149333 0.549266455,0.566149333 L37.7746794,0.566149333 C37.9450038,0.566149333 38.0968665,0.684549333 38.1528472,0.862149333 L42.0667355,13.2000871 Z" id="Fill-70" fill="#FFD88A"></path>
                    <path d="M42.0667355,13.2000871 L3.99148711,13.2000871 L0.171694155,1.15551822 C0.0799810094,0.866753778 0.273531479,0.566149333 0.549266455,0.566149333 L37.7746794,0.566149333 C37.9450038,0.566149333 38.0968665,0.684549333 38.1528472,0.862149333 L42.0667355,13.2000871 Z" id="Stroke-72" stroke="#B18B3D" stroke-width="2.5" stroke-linecap="round" stroke-linejoin="round"></path>
                </g>
                <path d="M41.3,36.5066667 L55.1106014,36.5066667 L58.9772083,25.2189986 C59.0687969,24.9483806 58.872966,24.6666667 58.5933796,24.6666667 L45.6426267,24.6666667 C45.4702955,24.6666667 45.3166435,24.7776262 45.2600032,24.9440655 L41.3,36.5066667 Z" id="Stroke-75" stroke="#B18B3D" stroke-width="2.5" stroke-linecap="round" stroke-linejoin="round"></path>
                <line x1="41.7916667" y1="35.52" x2="41.7916667" y2="73.0133333" id="Stroke-77" stroke="#B18B3D" stroke-width="2.5" stroke-linecap="round" stroke-linejoin="round"></line>
                <path d="M32.2378188,49.4839036 C32.1380209,49.2875052 32.0128198,49.1561675 31.8634252,49.0394229 C31.8386269,49.0254379 31.8259254,49.012669 31.7884255,48.999292 C31.7763288,48.9865231 31.7636272,48.9865231 31.7503208,48.9737541 C31.4648381,48.8028936 31.1273395,48.7110788 30.7916554,48.5815653 C30.7160509,48.5542033 30.6670591,48.6077112 30.7160509,48.659395 C31.5150395,49.6267941 31.5894344,50.3856338 30.6918574,49.2479823 C28.2979156,46.2120154 24.1475295,46.3561219 23.8735386,46.3822679 C23.6364428,46.3962529 23.3999519,46.4217908 23.1634609,46.4600976 C21.032018,46.8139796 18.97497,48.0179079 17.5046132,49.7064479 C17.1671146,50.0992448 16.8556239,50.5048105 16.5816331,50.9498992 C15.8461522,52.1276817 15.3610736,53.4890936 15.2104694,54.8882043 C15.1112762,55.7656128 15.3477672,56.8248265 15.0114782,57.6499431 C14.5251899,58.8666404 14.650391,60.4499887 15.9592566,60.9868921 C16.1207479,61.0519529 16.3445373,61.1303906 16.5072382,61.1832905 C16.9802202,61.3267891 17.4665085,61.340166 17.915297,61.5888563 C18.0029982,61.6283792 18.0894898,61.680063 18.1650943,61.7329629 C18.2521907,61.7852547 18.3271904,61.8235615 18.4142869,61.8770695 C18.7505758,62.0862368 19.0868647,62.2947961 19.4612584,62.4528877 C19.4733551,62.4656567 19.4860567,62.4656567 19.5114598,62.4790337 C19.5362581,62.4911945 19.5737579,62.5045715 19.5985562,62.5179485 C20.5832296,62.9362832 21.6308059,63.1199127 22.6650759,63.1466667 C22.8265671,63.1466667 22.9892681,63.1466667 23.1507594,63.1326816 C23.225759,63.1326816 23.3122506,63.1199127 23.3878552,63.1199127 C23.5499513,63.1065357 23.7120474,63.0931587 23.8608371,63.0809978 C24.023538,63.0548519 24.1856341,63.0414749 24.3356335,63.001344 C24.4094235,62.9891831 24.4971248,62.9758061 24.5709148,62.9624291 C25.4449032,62.7787997 26.2789723,62.4790337 27.0773561,62.0461059 C27.1771541,61.9944221 27.2636457,61.9421302 27.3640485,61.8898384 C27.4511449,61.8369385 27.5509429,61.7718777 27.6380393,61.7195859 C27.8249337,61.6016252 27.9991265,61.4836646 28.1739242,61.366312 C28.4473102,61.1699135 28.6971076,60.9735151 28.9342034,60.7643478 C29.0587996,60.659156 29.1706943,60.5424115 29.2831939,60.4372197 C29.5075881,60.2140674 29.7319823,59.9799702 29.9315783,59.7306719 C30.2309722,59.364021 30.5043582,58.9712241 30.7541556,58.5662664 C31.40254,57.4924595 31.8386269,56.2763703 32.0878194,54.9933961 C32.0999162,54.9277272 32.1126177,54.8754354 32.1126177,54.8225355 C32.1253193,54.7702437 32.1380209,54.7051829 32.1380209,54.6534991 C32.2747138,53.7754827 32.3249152,52.8731444 32.2747138,51.9434441 C32.2868106,51.0271209 32.6860025,50.3600959 32.2378188,49.4839036" id="Fill-79" fill="#B18B3D"></path>
            </g>
        </g>
    </g>
</svg>