<?xml version="1.0" encoding="UTF-8"?>
<svg width="70px" height="64px" viewBox="0 0 70 64" version="1.1" xmlns="http://www.w3.org/2000/svg" xmlns:xlink="http://www.w3.org/1999/xlink">
    <!-- Generator: sketchtool 63.1 (101010) - https://sketch.com -->
    <title>5EDAAC8D-B1F7-41BC-B313-0C28F1CD8544@1.00x</title>
    <desc>Created with sketchtool.</desc>
    <g id="Symbols" stroke="none" stroke-width="1" fill="none" fill-rule="evenodd">
        <g id="Achievements-Icons-/--Producers" transform="translate(2.000000, -4.000000)">
            <g id="icon-grocery-80-copy-4" transform="translate(0.000000, 6.000000)">
                <ellipse id="Oval" stroke="#3C94CD" stroke-width="2.5" fill="#ADD8F5" cx="30.5" cy="25" rx="14.25" ry="13.75"></ellipse>
                <g id="Group-7" transform="translate(44.000000, 3.000000)">
                    <path d="M0.368866667,24.0798649 C0.368866667,24.0798649 12.5910889,-1.86608108 19.9244222,0.566351351 C27.2577556,2.99878378 11.7762741,29.7555405 11.7762741,29.7555405" id="Stroke-1" fill="#ADD8F5"></path>
                    <path d="M4.125,24.0909091 L17.0035121,4.4040613 C17.6460068,2.89278785 17.3577394,1.84852885 16.1387097,1.27128427 C14.91968,0.694039703 14.91968,1.00961371 16.1387097,2.2180063 L11.1326109,5.64909091 L4.68738519,16.7995946 L1.83333333,21.1900772 L1.09324945,24.0909091 L4.125,24.0909091 Z" id="Path-5" fill="#FFFFFF"></path>
                    <line x1="9.33182963" y1="17.5933784" x2="4.68738519" y2="16.7995946" id="Stroke-3" stroke="#3C94CD" stroke-width="2.5" stroke-linecap="round" stroke-linejoin="round"></line>
                    <line x1="13.4059037" y1="11.1068919" x2="8.20331111" y2="10.1801351" id="Stroke-5" stroke="#3C94CD" stroke-width="2.5" stroke-linecap="round" stroke-linejoin="round"></line>
                    <path d="M0.368866667,24.0798649 C0.368866667,24.0798649 12.5910889,-1.86608108 19.9244222,0.566351351 C27.2577556,2.99878378 11.7762741,29.7555405 11.7762741,29.7555405" id="Stroke-1" stroke="#3C94CD" stroke-width="2.5" stroke-linecap="round" stroke-linejoin="round"></path>
                </g>
                <g id="Group-3" transform="translate(0.000000, 12.000000)" stroke="#3C94CD" stroke-linecap="round" stroke-linejoin="round" stroke-width="2.5">
                    <path d="M21.5940731,18 C21.5940731,18 21.5940731,7.6461433 17.2253584,5.76592389 C12.8566437,3.88570449 0.749115657,4.01097017 4.48694579e-14,0 C4.48694579e-14,0 4.48694579e-14,10.5284882 5.99108165,17.4218032" id="Stroke-5" fill="#FFFFFF"></path>
                    <path d="M8.11337117,8.18181818 C8.11337117,8.18181818 15.227819,11.0510297 15.6026841,17.1818182" id="Stroke-7"></path>
                </g>
                <g id="Group-6" transform="translate(2.000000, 0.000000)">
                    <path d="M58.0024927,36.4864865 L54.791648,55.0240006 C54.2935367,57.8997999 51.798294,60 48.8796752,60 L14.1798556,60 C11.2612368,60 8.76599405,57.8997999 8.26788279,55.0240006 L5.05703812,36.4864865 L5.05703812,36.4864865" id="Stroke-1" stroke="#3C94CD" stroke-width="2.5" fill="#ADD8F5" stroke-linecap="round" stroke-linejoin="round"></path>
                    <path d="M5.05703812,36.8547065 L9.53300371,57.689447 L10.4028867,58.5428865 C10.6648046,59.2454606 11.411321,59.5967477 12.6424361,59.5967477 C13.8735512,59.5967477 14.3010952,58.5682641 13.9250681,56.5112969 L10.4028867,39.3229059 C10.0226963,37.9008626 9.19197434,37.1898409 7.91072077,37.1898409 C6.62946721,37.1898409 5.67823966,37.0781294 5.05703812,36.8547065 Z" id="Path-3" fill="#FFFFFF"></path>
                    <path d="M58.0024927,36.4864865 L54.791648,55.0240006 C54.2935367,57.8997999 51.798294,60 48.8796752,60 L14.1798556,60 C11.2612368,60 8.76599405,57.8997999 8.26788279,55.0240006 L5.05703812,36.4864865 L5.05703812,36.4864865" id="Stroke-1" stroke="#3C94CD" stroke-width="2.5" stroke-linecap="round" stroke-linejoin="round"></path>
                    <path d="M15.6736205,36.4864865 L18.8849315,36.4864865 M23.1129136,36.4864865 L58.966129,36.4864865 C61.175268,36.4864865 62.966129,34.6956255 62.966129,32.4864865 L62.966129,31.5675676 C62.966129,29.3584286 61.175268,27.5675676 58.966129,27.5675676 L4.09340176,27.5675676 C1.88426276,27.5675676 0.0934017595,29.3584286 0.0934017595,31.5675676 L0.0934017595,32.4864865 C0.0934017595,34.6956255 1.88426276,36.4864865 4.09340176,36.4864865 L9.55703812,36.4864865" id="Shape" stroke="#3C94CD" stroke-width="2.5" fill="#FFFFFF" stroke-linecap="round" stroke-linejoin="round"></path>
                    <path d="M31.5297654,44.5945946 C33.814216,44.5945946 35.666129,42.7426815 35.666129,40.458231 L35.666129,4.13636364 C35.666129,1.85191308 33.814216,-4.19646759e-16 31.5297654,0 C29.2453148,4.19646759e-16 27.3934018,1.85191308 27.3934018,4.13636364 L27.3934018,40.458231 C27.3934018,42.7426815 29.2453148,44.5945946 31.5297654,44.5945946 Z" id="Stroke-5" stroke="#3C94CD" stroke-width="2.5" fill="#FFFFFF" stroke-linecap="round" stroke-linejoin="round"></path>
                    <path d="M46.1613343,37.2783265 C48.8559855,37.2783265 49.966348,38.0949497 49.4924218,39.7281962 L46.1613343,56.9390048 C46.0345096,58.24476 45.3140648,58.8976376 44,58.8976376 C42.6859352,58.8976376 45.1298784,59.1306743 51.3318296,59.5967477 L53.7833975,56.9390048 L58.0024927,37.2783265 C47.4137359,37.2783265 43.4666832,37.2783265 46.1613343,37.2783265 Z" id="Path-4" fill="#3A94CC"></path>
                </g>
            </g>
        </g>
    </g>
</svg>