<?xml version="1.0" encoding="UTF-8"?>
<svg width="78px" height="66px" viewBox="0 0 78 66" version="1.1" xmlns="http://www.w3.org/2000/svg" xmlns:xlink="http://www.w3.org/1999/xlink">
    <!-- Generator: sketchtool 63.1 (101010) - https://sketch.com -->
    <title>044B1FA9-44EC-460A-AA49-4CA89F855E26@1.00x</title>
    <desc>Created with sketchtool.</desc>
    <g id="Versions-for-A/B-test" stroke="none" stroke-width="1" fill="none" fill-rule="evenodd">
        <g id="Login---Version-B" transform="translate(-833.000000, -233.000000)">
            <g id="Group-4" transform="translate(832.000000, 230.000000)">
                <g id="icon-food-waste-80-copy-2">
                    <g id="Group-7-Copy-4" transform="translate(40.000000, 25.000000)" stroke="#57823B" stroke-linejoin="round" stroke-width="2.5">
                        <path d="M9,41.3224096 C9,41.3224096 21.1246544,45.8613385 28.7167157,38.6929939 C35.685413,32.113223 37.3118532,22.6525737 37.3118532,16.7700985 C37.3118532,10.8876233 35.5867009,3.52106081 33.0515078,1 L9,41.3224096 Z" id="Stroke-5" fill="#57823B"></path>
                        <path d="M3.64426788,37.7835954 C14.2051459,48.4479913 27.5850982,37.3210444 32.1907425,21.818267 C34.8258017,12.9486401 36.1433313,1.86160647 31.9711542,0.309421767 C27.5613826,-1.33101573 19.1142612,3.7557153 10.6710924,10.7312334 C1.00920869,18.7138976 -3.82173317,30.2444126 3.64426788,37.7835954 Z" id="Stroke-1" fill="#FFFFFF"></path>
                        <path d="M22.581567,23.7989792 C22.7429885,28.9789603 18.9278227,32.8374213 15.5384183,32.7423297 C12.149014,32.6472381 9.06533051,28.9919715 9.07179782,23.8803943 C9.07828552,18.7688171 13.0688939,14.6741247 16.5788031,14.8375811 C20.0887122,15.0010376 22.4201455,18.6189981 22.581567,23.7989792 Z" id="Stroke-3" fill="#57823B" transform="translate(15.829158, 23.788451) rotate(31.000000) translate(-15.829158, -23.788451) "></path>
                    </g>
                    <g id="Group-4-Copy-10" transform="translate(6.000000, 15.000000)">
                        <g id="Group-5">
                            <g id="Group-6-Copy" transform="translate(0.617395, 0.450000)">
                                <path d="M38.9992476,14.55 C38.9992476,14.55 41.3427429,1.58087941 31.7070532,2.96460783 C31.7070532,2.96460783 32.0319477,0.407525111 25.5091362,2.96460783 C25.5091362,2.96460783 24.7582658,-0.718255911 18.9040114,0.485469298 C13.049757,1.68919451 14.8195202,2.81423478 14.8195202,2.81423478 C14.8195202,2.81423478 8.16460289,2.43052422 9.79512331,7.8128426 C9.79512331,7.8128426 3.42047453,5.37205825 2.38260521,11.015122" id="Stroke-1" stroke="#57823B" stroke-width="2.5" fill="#FFFFFF" stroke-linecap="round" stroke-linejoin="round"></path>
                                <path d="M0.888857849,10.875 L39.2799048,10.875 C39.8321895,10.875 40.2799048,11.3227153 40.2799048,11.875 C40.2799048,11.9085721 40.2782141,11.9421229 40.2748393,11.9755249 L36.6614929,47.7382239 L36.6614929,47.7382239 C36.426945,50.0596359 34.4965784,51.825 32.1927399,51.825 L9.27350881,51.825 C6.96967033,51.825 5.03930372,50.0596359 4.80475582,47.7382239 C4.39921141,43.7243926 4.12741413,41.0343089 3.98936399,39.6679728 M3.64038043,36.2139464 C3.43665835,34.1976295 3.27919565,32.6391597 3.16799232,31.538537 M2.70856705,26.9914259 C2.31158585,23.0623481 1.76880215,17.6902062 1.08021595,10.875" id="Shape" fill="#FFFFFF"></path>
                                <path d="M40.2660535,10.875 L36.9844485,47.7382239 C36.7777938,50.0596359 35.0769929,51.825 33.0471347,51.825 C21.7261832,52.0739457 13.6825456,52.0739457 8.91622207,51.825 C7.80998177,51.7672209 7.04477349,51.3071337 6.62059721,50.4447384 C8.17168874,50.4447384 9.12287674,50.0596359 8.91622207,47.7382239 C8.55890636,43.7243926 8.31943214,41.0343089 8.19779938,39.6679728 C7.09490678,26.6591885 6.40693105,18.570624 6.13387219,15.4022792 C5.95507462,13.3276629 6.04760849,10.875 3.40418637,10.875 C0.188452825,10.875 0.0560965035,10.875 3.00711741,10.875 L38.1784549,10.55 L40.2660535,10.875 Z" id="Path" fill="#D3E5A4"></path>
                                <path d="M27.1454642,10.875 C29.9839644,10.875 31.4032146,12.0214156 31.4032146,14.3142469 L28.3104817,47.835605 C28.4995258,49.9194449 27.0981901,50.9613649 24.1064745,50.9613649 C21.1147588,50.9613649 24.3477902,51.0999137 33.8055685,51.3770114 L36.2953638,49.0984282 L40.3860327,10.0875 C28.7204868,10.6125 24.306964,10.875 27.1454642,10.875 Z" id="Path-2" fill="#57823B"></path>
                                <path d="M0.888857849,10.875 L39.2799048,10.875 C39.8321895,10.875 40.2799048,11.3227153 40.2799048,11.875 C40.2799048,11.9085721 40.2782141,11.9421229 40.2748393,11.9755249 L36.6614929,47.7382239 L36.6614929,47.7382239 C36.426945,50.0596359 34.4965784,51.825 32.1927399,51.825 L9.27350881,51.825 C6.96967033,51.825 5.03930372,50.0596359 4.80475582,47.7382239 C4.39921141,43.7243926 4.12741413,41.0343089 3.98936399,39.6679728 M3.64038043,36.2139464 C3.43665835,34.1976295 3.27919565,32.6391597 3.16799232,31.538537 M2.70856705,26.9914259 C2.31158585,23.0623481 1.76880215,17.6902062 1.08021595,10.875" id="Shape" stroke="#57823B" stroke-width="2.5" stroke-linecap="round" stroke-linejoin="round"></path>
                            </g>
                        </g>
                    </g>
                    <g id="Group-4-Copy" transform="translate(25.000000, 14.500000) rotate(-14.000000) translate(-25.000000, -14.500000) translate(2.000000, 6.000000)" stroke="#57823B" stroke-width="2.5">
                        <path d="M1,16.5375 L44.2658621,16.5375 C44.8181468,16.5375 45.2658621,16.0897847 45.2658621,15.5375 L45.2658621,8.7175 C45.2658621,8.16521525 44.8181468,7.7175 44.2658621,7.7175 L1,7.7175 C0.44771525,7.7175 -6.76353751e-17,8.16521525 0,8.7175 L0,15.5375 C-4.22892021e-16,16.0897847 0.44771525,16.5375 1,16.5375 Z" id="Stroke-1" fill="#D3E5A4"></path>
                        <path d="M13.9279576,7.7175 L13.9279576,3 C13.9279576,1.34314575 15.2711033,7.48448398e-16 16.9279576,0 L29.4985676,0 C31.1554219,1.39730022e-16 32.4985676,1.34314575 32.4985676,3 L32.4985676,7.7175 L32.4985676,7.7175" id="Stroke-3"></path>
                    </g>
                </g>
            </g>
        </g>
    </g>
</svg>