<?xml version="1.0" encoding="UTF-8"?>
<svg width="158px" height="155px" viewBox="0 0 158 155" version="1.1" xmlns="http://www.w3.org/2000/svg" xmlns:xlink="http://www.w3.org/1999/xlink">
    <title>tag-8meals-DESKTOP</title>
    <g id="Page-1" stroke="none" stroke-width="1" fill="none" fill-rule="evenodd">
        <g id="tag-8meals-DESKTOP">
            <path d="M104.373084,128 C137.510169,128 139,98.5457947 139,73.0906382 C139,47.6354816 112.137085,27 79,27 C45.862915,27 19,47.6354816 19,73.0906382 C19,98.5457947 71.2359995,128 104.373084,128 Z" id="Oval" fill="#254194" transform="translate(79.000000, 77.500000) rotate(-40.000000) translate(-79.000000, -77.500000) "></path>
            <g id="Group-8" transform="translate(39.000000, 71.000000)" fill="#3B95CD" fill-rule="nonzero">
                <g id="Group-3">
                    <path d="M14.6694341,9.45295149 C14.5806288,9.24875592 14.38921,9.11812868 14.1785682,9.11812868 L9.32541222,9.11812868 L14.2097042,0.890060971 C14.3155666,0.711643282 14.3223353,0.48572478 14.227032,0.300355752 C14.1317288,0.115276364 13.9500569,2.78532752e-12 13.752411,2.78532752e-12 L6.93389611,2.78532752e-12 C6.72893995,2.78532752e-12 6.54131166,0.123965537 6.44952813,0.320051212 L0.0571704431,13.9970994 C-0.0267614029,14.1766757 -0.0178267225,14.38985 0.0809962574,14.5607371 C0.179548489,14.7313345 0.353910131,14.835315 0.541538419,14.835315 L4.75437559,14.835315 L0.042550057,26.7959618 C-0.0614171328,27.0598231 0.0306371498,27.3653923 0.258877621,27.5148461 C0.346599938,27.5721946 0.444610674,27.6 0.541267671,27.6 C0.696406212,27.6 0.849649518,27.5287488 0.955782691,27.393777 L14.5928124,10.0701724 C14.7284571,9.89812679 14.7582394,9.65743669 14.6694341,9.45295149 Z" id="Shape"></path>
                </g>
            </g>
        </g>
    </g>
</svg>